HIERARCHY
ROOT Hips
{
	OFFSET 0.000000 0.000000 0.000000
	CHANNELS 6 Xposition Yposition Zposition Zrotation Yrotation Xrotation 
	JOINT LeftUpLeg_virtual
	{
		OFFSET 0.000000 0.000000 0.000000
		CHANNELS 3 Zrotation Yrotation Xrotation
		JOINT LeftUpLeg
		{
			OFFSET 10.205400 -3.823500 0.155100
			CHANNELS 3 Zrotation Yrotation Xrotation
			JOINT LeftLeg
			{
				OFFSET 0.708757 -12.982077 0.567790
				CHANNELS 3 Zrotation Yrotation Xrotation
				JOINT LeftFoot
				{
					OFFSET -0.708756 -10.717838 -2.184338
					CHANNELS 3 Zrotation Yrotation Xrotation
					JOINT LeftToeBase
					{
						OFFSET 0.108149 -7.191104 7.560241
						CHANNELS 3 Zrotation Yrotation Xrotation
						End Site
						{
							OFFSET 0.000000 0.000000 0.000000
						}
					}
				}
			}
		}
	}
	JOINT RightUpLeg_virtual
	{
		OFFSET 0.000000 0.000000 0.000000
		CHANNELS 3 Zrotation Yrotation Xrotation
		JOINT RightUpLeg
		{
			OFFSET -10.205400 -3.823500 0.005500
			CHANNELS 3 Zrotation Yrotation Xrotation
			JOINT RightLeg
			{
				OFFSET -0.708756 -12.982134 0.610632
				CHANNELS 3 Zrotation Yrotation Xrotation
				JOINT RightFoot
				{
					OFFSET 0.708754 -10.717769 -1.945823
					CHANNELS 3 Zrotation Yrotation Xrotation
					JOINT RightToeBase
					{
						OFFSET -0.108140 -7.191069 7.372968
						CHANNELS 3 Zrotation Yrotation Xrotation
						End Site
						{
							OFFSET 0.000000 0.000000 0.000000
						}
					}
				}
			}
		}
	}
	JOINT Spine_virtual
	{
		OFFSET 0.000000 0.000000 0.000000
		CHANNELS 3 Zrotation Yrotation Xrotation
		JOINT Spine
		{
			OFFSET 0.000000 6.876099 0.125700
			CHANNELS 3 Zrotation Yrotation Xrotation
			JOINT Spine1
			{
				OFFSET 0.000000 8.022060 0.146608
				CHANNELS 3 Zrotation Yrotation Xrotation
				JOINT Spine2
				{
					OFFSET 0.000000 9.168068 0.167552
					CHANNELS 3 Zrotation Yrotation Xrotation
					JOINT Neck_virtual
					{
						OFFSET 0.000000 0.000000 0.000000
						CHANNELS 3 Zrotation Yrotation Xrotation
						JOINT Neck
						{
							OFFSET 0.000000 10.314075 0.188496
							CHANNELS 3 Zrotation Yrotation Xrotation
							JOINT Head
							{
								OFFSET 0.000000 7.643700 -2.377400
								CHANNELS 3 Zrotation Yrotation Xrotation
								End Site
								{
									OFFSET 0.000000 0.000000 0.000000
								}
							}
						}
					}
					JOINT LeftShoulder_virtual
					{
						OFFSET 0.000000 0.000000 0.000000
						CHANNELS 3 Zrotation Yrotation Xrotation
						JOINT LeftShoulder
						{
							OFFSET 4.392200 8.824978 0.174984
							CHANNELS 3 Zrotation Yrotation Xrotation
							JOINT LeftArm
							{
								OFFSET 8.771219 -2.981674 -0.026999
								CHANNELS 3 Zrotation Yrotation Xrotation
								JOINT LeftForeArm
								{
									OFFSET 8.512804 0.000000 -0.000000
									CHANNELS 3 Zrotation Yrotation Xrotation
									JOINT LeftHand
									{
										OFFSET 18.484802 0.000000 -0.000000
										CHANNELS 3 Zrotation Yrotation Xrotation
										End Site
										{
											OFFSET 0.000000 0.000000 0.000000
										}
									}
								}
							}
						}
					}
					JOINT RightShoulder_virtual
					{
						OFFSET 0.000000 0.000000 0.000000
						CHANNELS 3 Zrotation Yrotation Xrotation
						JOINT RightShoulder
						{
							OFFSET -4.392200 8.824993 0.141379
							CHANNELS 3 Zrotation Yrotation Xrotation
							JOINT RightArm
							{
								OFFSET -8.771282 -2.981682 -0.094208
								CHANNELS 3 Zrotation Yrotation Xrotation
								JOINT RightForeArm
								{
									OFFSET -8.494598 0.000000 0.000000
									CHANNELS 3 Zrotation Yrotation Xrotation
									JOINT RightHand
									{
										OFFSET -18.483803 0.000000 0.000001
										CHANNELS 3 Zrotation Yrotation Xrotation
										End Site
										{
											OFFSET 0.000000 0.000000 0.000000
										}
									}
								}
							}
						}
					}
				}
			}
		}
	}
}
MOTION
Frames: 13
Frame Time: 0.033333
-52.474861 36.300350 91.713585 0.293642 45.746469 0.837956 -0.560447 -7.985453 13.968276 -13.819824 -1.529869 -45.756981 14.639206 8.971542 14.249994 -9.586347 -2.002752 12.754479 0.000000 0.000000 0.000000 6.844374 -7.569238 13.323546 -8.184411 2.392463 -4.383265 -2.550034 1.687396 21.405330 -3.977991 7.683542 -0.748372 0.000000 0.000000 0.000000 2.700811 -2.040238 5.652851 4.092348 6.464906 -13.707317 -2.067694 -2.847368 7.233461 0.014979 0.032982 0.086303 -2.174110 -0.888294 8.350571 -8.479276 3.008384 24.898037 0.000000 0.000000 0.000000 -0.195815 -0.049800 4.794126 -6.951682 -1.354056 3.303087 -52.043449 18.744221 16.469244 -4.654727 -49.176932 11.537954 0.000000 0.000000 0.000000 -4.745180 0.981728 3.966507 27.767625 2.847419 6.000233 42.685677 -11.754793 -10.105763 -6.887073 20.895458 3.877480 0.000000 0.000000 0.000000 
-51.460724 36.043522 92.896019 0.179386 46.514015 1.096559 -0.350599 -8.045398 14.216783 -15.402189 -0.213937 -47.041050 15.326612 9.252815 13.210783 -9.521624 -2.477177 12.835136 0.000000 0.000000 0.000000 7.601377 -8.363212 13.968437 -8.898491 1.542122 -2.222141 -2.889720 1.619418 21.249847 -3.650244 8.257013 -1.325185 0.000000 0.000000 0.000000 2.859808 -2.204336 5.593470 3.752106 6.668928 -13.930536 -2.129852 -2.785031 7.201658 -0.008473 0.061915 0.048709 -2.273462 -0.773884 8.289131 -8.710693 3.459563 24.988992 0.000000 0.000000 0.000000 -0.216230 0.095625 4.620115 -7.038726 -1.097731 3.201855 -52.257975 18.930853 15.758804 -4.620741 -49.530893 11.374850 0.000000 0.000000 0.000000 -4.827269 1.073247 3.868160 27.604759 3.018860 6.041501 43.356828 -11.873527 -9.939293 -6.885744 20.606127 3.702305 0.000000 0.000000 0.000000 
-50.342487 35.799610 94.122147 -0.054152 47.161561 1.184702 0.055000 -8.025260 14.411286 -16.735946 0.841534 -47.326309 16.469032 10.419582 13.109001 -8.613720 -2.528570 15.636402 0.000000 0.000000 0.000000 8.692961 -9.255372 14.420010 -10.074851 0.395282 -0.013221 -3.478857 1.844086 21.100379 -3.191244 9.203008 -1.460239 0.000000 0.000000 0.000000 3.002162 -2.391113 5.758333 3.260854 6.940076 -14.293441 -2.119860 -2.635632 7.039168 0.023957 0.167956 0.067386 -2.344563 -0.677706 8.267530 -8.705608 3.871039 24.982018 0.000000 0.000000 0.000000 -0.229278 0.298219 4.596483 -7.034975 -0.969004 3.030422 -52.494003 18.985124 14.957523 -4.676639 -49.944017 11.265310 0.000000 0.000000 0.000000 -4.914711 1.118729 3.852140 27.410659 3.155029 6.103727 44.019063 -12.155011 -9.511271 -6.837395 20.272416 3.718338 0.000000 0.000000 0.000000 
-49.133438 35.593563 95.348976 0.529746 47.558033 1.674092 -0.580966 -7.838781 14.581467 -18.334721 3.269723 -47.027686 17.239662 12.282158 14.965283 -6.961299 -2.204475 17.978747 0.000000 0.000000 0.000000 9.473913 -10.142209 14.630002 -11.788789 -0.987819 2.235597 -4.322659 2.077869 20.773160 -2.749457 10.691382 -0.813737 0.000000 0.000000 0.000000 2.751883 -2.588107 5.766198 2.431551 7.141828 -14.316293 -2.136522 -2.399604 7.078403 0.058255 0.366281 -0.018517 -2.305745 -0.588016 8.186243 -8.598649 4.168074 24.683264 0.000000 0.000000 0.000000 -0.186317 0.356595 4.478198 -6.860473 -0.821728 2.824390 -52.896427 19.135356 14.234637 -4.823779 -50.552627 11.244611 0.000000 0.000000 0.000000 -4.872392 1.198271 3.855344 27.477310 3.248473 6.070465 44.451585 -12.609402 -9.134094 -7.019319 19.895542 3.230751 0.000000 0.000000 0.000000 
-47.853603 35.472691 96.564331 0.766657 48.765283 1.755011 -0.591606 -7.956024 14.721406 -19.874664 4.387636 -45.825628 18.488311 13.731357 17.700198 -5.691356 -1.695051 18.258725 0.000000 0.000000 0.000000 9.841359 -10.463685 14.596961 -12.295820 -2.376372 4.335987 -5.358104 2.893135 20.831684 -1.558792 12.373929 1.917790 0.000000 0.000000 0.000000 2.620839 -2.623239 5.807936 1.610668 7.089257 -14.404613 -2.132872 -2.376985 7.135597 0.077110 0.265498 0.048086 -2.201534 -0.550729 8.053586 -8.534620 4.310301 24.704987 0.000000 0.000000 0.000000 -0.086529 0.360174 4.390311 -6.582866 -0.917862 2.692520 -52.871449 19.540572 14.116967 -5.102632 -52.046865 11.383807 0.000000 0.000000 0.000000 -4.792552 1.136497 3.844839 27.428274 3.292781 6.009321 44.867212 -13.381155 -8.701215 -7.001066 19.916427 3.002622 0.000000 0.000000 0.000000 
-46.535324 35.437748 97.703651 1.040673 50.219570 1.819265 -0.104727 -8.234696 14.664954 -21.052185 4.079651 -43.706565 19.758969 14.175118 20.324985 -5.071258 -1.426901 17.993336 0.000000 0.000000 0.000000 10.074264 -10.556737 14.453066 -12.668066 -3.587601 6.032133 -5.945813 3.227512 21.475809 -0.241355 13.653015 5.624946 0.000000 0.000000 0.000000 2.384547 -2.786035 5.868686 0.765805 6.981847 -14.450305 -2.070600 -2.403134 7.204944 0.025870 0.228447 0.008066 -2.029489 -0.580826 8.003507 -8.412652 4.527128 24.565221 0.000000 0.000000 0.000000 0.076796 0.323089 4.426901 -6.039973 -0.977257 2.597187 -52.643400 20.309303 14.689324 -5.407447 -54.227641 11.575606 0.000000 0.000000 0.000000 -4.572464 1.233531 3.811710 27.445775 3.053826 6.000949 45.254982 -14.346261 -8.290876 -6.978625 20.283029 2.752312 0.000000 0.000000 0.000000 
-45.210110 35.486042 98.726440 1.290950 52.005559 1.540508 0.275602 -8.610475 14.748597 -21.786908 3.177696 -40.711004 20.355571 14.405036 22.148161 -5.077321 -1.920564 17.343198 0.000000 0.000000 0.000000 9.534336 -10.166080 14.039526 -12.446375 -5.149498 6.559697 -5.606572 2.469872 22.792322 1.725630 14.750325 9.203457 0.000000 0.000000 0.000000 2.147125 -2.959845 6.026028 0.083234 6.668528 -14.324998 -2.052369 -2.422688 7.365367 0.136062 0.061149 -0.024954 -2.024175 -0.552093 7.997943 -8.331102 4.497202 24.513788 0.000000 0.000000 0.000000 0.030842 0.393591 4.384165 -5.290706 -1.119882 2.557469 -51.704730 21.241359 15.762577 -6.208875 -56.526687 12.372733 0.000000 0.000000 0.000000 -4.512651 1.361531 3.871284 27.497042 3.057138 5.760484 45.493612 -15.446212 -7.882655 -6.967834 20.757252 2.417397 0.000000 0.000000 0.000000 
-43.949318 35.610802 99.585716 0.996541 53.921864 1.052675 0.419519 -8.627448 14.955258 -21.721417 2.307726 -37.641459 20.500717 14.199486 22.476609 -5.485622 -2.679150 16.046568 0.000000 0.000000 0.000000 8.625378 -9.612999 13.607260 -11.895063 -7.501790 5.696112 -5.242571 0.759127 26.004784 2.975094 16.967204 12.715694 0.000000 0.000000 0.000000 2.087938 -2.983458 6.165606 -0.326702 6.496274 -14.289811 -1.936919 -2.475518 7.444415 0.072880 -0.013985 0.009992 -1.932685 -0.355470 7.881885 -8.249257 4.423081 24.347816 0.000000 0.000000 0.000000 -0.027229 0.381163 4.467513 -4.443004 -1.277215 2.490684 -50.148188 22.116354 16.940662 -6.837067 -58.309844 12.993620 0.000000 0.000000 0.000000 -4.326115 1.378672 3.875358 27.617284 2.931952 5.591638 45.373592 -16.416302 -7.608711 -7.038095 21.358852 2.116444 0.000000 0.000000 0.000000 
-42.789795 35.747231 100.271378 0.809252 56.000803 0.626440 0.261533 -8.483046 15.219000 -21.447689 1.376243 -34.876025 20.468629 13.811789 22.596696 -5.574711 -3.360218 14.431689 0.000000 0.000000 0.000000 7.253230 -9.345230 13.281432 -11.206327 -10.418273 3.104077 -5.036055 -0.880222 30.386409 2.646969 19.182689 14.542472 0.000000 0.000000 0.000000 2.006265 -2.942605 6.346318 -0.542519 6.295279 -14.195010 -1.866857 -2.463678 7.532641 0.055509 -0.048317 0.044308 -1.888660 -0.447445 7.821402 -8.210611 4.503711 24.133095 0.000000 0.000000 0.000000 -0.138975 0.254279 4.462365 -3.595137 -1.545405 2.529969 -48.307783 22.795808 17.811935 -7.063628 -58.971109 13.273735 0.000000 0.000000 0.000000 -4.163230 1.315908 3.785310 27.708312 2.840235 5.411401 45.022438 -17.130494 -7.429247 -7.106323 21.880911 1.771779 0.000000 0.000000 0.000000 
-41.732246 35.863705 100.822014 0.693307 58.627543 0.462198 -0.012675 -8.339523 15.382908 -21.170544 0.252702 -32.607788 20.272507 13.266854 22.812326 -5.408263 -3.931996 12.898219 0.000000 0.000000 0.000000 5.774557 -9.329962 13.380299 -9.883640 -12.199858 -1.142191 -5.267728 -0.781569 35.173155 3.146282 18.686948 13.870581 0.000000 0.000000 0.000000 1.931213 -2.824822 6.348372 -0.517498 5.942613 -13.975463 -1.839843 -2.533772 7.547253 0.013595 -0.149277 -0.036437 -1.826814 -0.491370 7.887256 -8.140661 4.522904 23.851603 0.000000 0.000000 0.000000 -0.121801 0.255042 4.611162 -2.901451 -1.949772 2.573835 -46.181709 23.064174 18.342519 -6.974453 -58.256985 13.289733 0.000000 0.000000 0.000000 -4.107061 1.258897 3.853244 27.727578 2.859457 5.204801 44.566363 -17.612186 -7.267481 -6.848451 22.284295 1.716401 0.000000 0.000000 0.000000 
-40.786514 35.975838 101.293999 0.438071 61.307771 0.266942 -0.266675 -8.011061 15.503913 -20.825078 -0.850964 -30.750509 19.977388 12.530259 22.929421 -5.116728 -4.359539 11.612305 0.000000 0.000000 0.000000 5.109819 -8.878672 13.372519 -9.335671 -12.255923 -6.486109 -5.460943 -0.174700 40.589861 3.211245 16.874746 10.390594 0.000000 0.000000 0.000000 1.824062 -2.841859 6.300900 -0.257336 5.700432 -13.748922 -1.731609 -2.488323 7.564699 -0.021010 -0.072917 0.021009 -1.825180 -0.493151 7.841679 -8.107756 4.356685 23.520395 0.000000 0.000000 0.000000 -0.142399 0.183496 4.599455 -2.378346 -2.303686 2.556251 -43.994423 23.193644 18.367567 -6.743356 -56.651962 13.164595 0.000000 0.000000 0.000000 -4.051550 1.198869 3.836422 27.738624 2.903341 5.001568 44.035469 -17.833685 -7.190412 -6.873172 22.583201 1.563343 0.000000 0.000000 0.000000 
-39.915844 36.091702 101.745659 0.426157 64.218367 0.382283 -0.626520 -7.698766 15.441396 -20.434413 -1.922637 -28.945652 19.584119 11.544414 22.819324 -4.913922 -4.696792 10.784006 0.000000 0.000000 0.000000 4.752275 -8.403998 13.177408 -9.598488 -11.938690 -12.272604 -5.593027 0.488604 44.004563 2.408882 17.351023 10.044912 0.000000 0.000000 0.000000 1.612531 -2.585015 6.153338 0.130107 5.337703 -13.416270 -1.657565 -2.503931 7.553329 0.000266 -0.027013 0.028183 -1.768583 -0.634481 7.956746 -7.987321 4.298766 23.226113 0.000000 0.000000 0.000000 -0.122885 0.100211 4.700230 -2.008078 -2.747153 2.604241 -41.850137 23.161426 18.422214 -6.392258 -55.107479 12.979217 0.000000 0.000000 0.000000 -3.996406 1.076224 3.938556 27.725756 2.952394 4.781456 43.530653 -17.849683 -7.223571 -6.655712 22.934447 1.658411 0.000000 0.000000 0.000000 
-39.106472 36.205059 102.161415 0.170087 67.250268 0.116102 -0.844414 -7.308040 15.224041 -19.962316 -2.843674 -26.917340 19.127388 10.303833 22.402855 -4.851764 -4.951500 10.275256 0.000000 0.000000 0.000000 4.462452 -7.653747 13.034654 -10.125544 -10.806906 -17.362133 -5.570932 1.157799 44.757106 1.870481 17.551715 9.900303 0.000000 0.000000 0.000000 1.435285 -2.257689 6.102871 0.672321 4.908626 -12.982693 -1.550678 -2.575524 7.619979 -0.031528 -0.005824 0.020579 -1.736379 -0.883338 8.076723 -7.863509 4.101103 22.893735 0.000000 0.000000 0.000000 -0.044505 0.034805 4.722802 -1.645365 -3.088207 2.689484 -39.864840 23.180141 18.743443 -6.277651 -54.514318 13.018342 0.000000 0.000000 0.000000 -3.905956 0.978562 4.044600 27.628901 3.019610 4.511650 43.166263 -17.741954 -7.469977 -6.417980 23.365992 1.702843 0.000000 0.000000 0.000000 
